<?xml version="1.0" encoding="UTF-8"?>
<svg version="1.1" xmlns="http://www.w3.org/2000/svg" width="1184" height="864">
<path d="M0 0 C390.72 0 781.44 0 1184 0 C1184 285.12 1184 570.24 1184 864 C793.28 864 402.56 864 0 864 C0 578.88 0 293.76 0 0 Z " fill="#F5F3EB" transform="translate(0,0)"/>
<path d="M0 0 C35.97 0 71.94 0 109 0 C109 2.64 109 5.28 109 8 C107.2984375 8.14695312 107.2984375 8.14695312 105.5625 8.296875 C92.80803085 9.06075264 92.80803085 9.06075264 82.4921875 15.72265625 C77.27824562 23.21583558 76.70012808 31.81469492 76.73930359 40.70631409 C76.73547804 41.6419319 76.73165249 42.57754971 76.72771102 43.54151958 C76.71745009 46.65477254 76.72136007 49.76783869 76.7253418 52.88110352 C76.72099136 55.12245351 76.7158071 57.36380201 76.70985413 59.60514832 C76.69648489 65.67989291 76.69588343 71.7545752 76.69841743 77.82933164 C76.69948909 82.91077641 76.69459846 87.99220869 76.689812 93.07365078 C76.67808928 105.75674144 76.67893766 118.4397872 76.68536881 131.12287741 C76.69053009 142.10462667 76.67930114 153.08628701 76.66027059 164.06801868 C76.64083182 175.37303588 76.63293756 186.67799893 76.63639385 197.98303741 C76.63820074 204.31817124 76.63563047 210.65322374 76.62167931 216.98834419 C76.60903518 222.95315102 76.61110706 228.91778118 76.62409019 234.88258553 C76.62644169 237.06088828 76.62377306 239.23920372 76.61546707 241.41749191 C76.25899805 262.92008712 76.25899805 262.92008712 83 283 C88.12605287 287.95069569 94.14589532 288.87556399 101 289.3125 C101.87011719 289.38533203 102.74023438 289.45816406 103.63671875 289.53320312 C105.75632535 289.70789598 107.87804106 289.85668221 110 290 C110 292.97 110 295.94 110 299 C73.7 299 37.4 299 0 299 C0 296.36 0 293.72 0 291 C-10.56 291 -21.12 291 -32 291 C-32 281.43 -32 271.86 -32 262 C-12.53 262 6.94 262 27 262 C27.495 272.395 27.495 272.395 28 283 C36.82641701 268.36672969 35.29969239 250.27822653 35.29052734 233.71386719 C35.29652572 231.52558161 35.30333422 229.33729812 35.31088257 227.14901733 C35.32840593 221.25676557 35.33323182 215.36457203 35.33451414 209.47229671 C35.33594286 205.78303115 35.34022577 202.09378007 35.34550858 198.40451813 C35.36395597 185.51250784 35.3721849 172.62053868 35.37060547 159.72851562 C35.36940203 147.74216179 35.3905577 135.75607472 35.4220928 123.76976657 C35.44828189 113.44488139 35.45897182 103.12005481 35.45769465 92.79513669 C35.45718627 86.6429493 35.46280269 80.49092206 35.48405075 74.33876801 C35.50348025 68.55685689 35.50352528 62.77525816 35.48901749 56.99333572 C35.48693492 54.87987687 35.49159709 52.76639818 35.5037384 50.65297318 C35.78672947 34.37738472 35.78672947 34.37738472 31 19 C29.68 17.68 28.36 16.36 27 15 C27 23.91 27 32.82 27 42 C7.53 42 -11.94 42 -32 42 C-32 30.78 -32 19.56 -32 8 C-21.44 8 -10.88 8 0 8 C0 5.36 0 2.72 0 0 Z " fill="#3E4442" transform="translate(490,283)"/>
<path d="M0 0 C19.47 0 38.94 0 59 0 C59 55.44 59 110.88 59 168 C39.53 168 20.06 168 0 168 C0 148.2 0 128.4 0 108 C-46.53 108 -93.06 108 -141 108 C-141 105.36 -141 102.72 -141 100 C-140.39671875 99.90203125 -139.7934375 99.8040625 -139.171875 99.703125 C-132.6677942 98.49862346 -132.6677942 98.49862346 -128 94 C-125.62867503 89.42059344 -125.66682621 85.16113543 -125.6875 80.125 C-125.67138672 79.34769531 -125.65527344 78.57039063 -125.63867188 77.76953125 C-125.63419491 72.44193771 -126.4350703 68.6973654 -129 64 C-132.16240582 61.89172945 -133.50657469 61.66182535 -137.1875 61.375 C-138.08855469 61.30023438 -138.98960937 61.22546875 -139.91796875 61.1484375 C-140.60503906 61.09945312 -141.29210937 61.05046875 -142 61 C-142 58.03 -142 55.06 -142 52 C-95.14 52 -48.28 52 0 52 C0 34.84 0 17.68 0 0 Z " fill="#A94A59" transform="translate(458,335)"/>
<path d="M0 0 C46.53 0.495 46.53 0.495 94 1 C94 3.64 94 6.28 94 9 C92 10 92 10 88.25 10.25 C62.25484697 13.00832813 44.69235314 34.56844832 28.70703125 53.04296875 C26.66366569 55.3855915 24.58319141 57.69273422 22.5 60 C19.81016569 62.98062721 17.13689636 65.97245233 14.5 69 C11.86310364 72.02754767 9.18983431 75.01937279 6.5 78 C1.66772724 83.36016811 -3.09818856 88.77009574 -7.78515625 94.2578125 C-13.11533054 100.49855823 -18.47827526 106.69358489 -23.98828125 112.77734375 C-30.22404838 119.6669583 -36.14834483 126.78163172 -42 134 C-40.60434289 138.23223587 -38.63895179 140.74291246 -35.5625 143.9375 C-31.68726106 148.08517324 -28.08886532 152.31755097 -24.625 156.8125 C-20.35500276 162.33971934 -15.91312231 167.67746925 -11.3425293 172.95800781 C-7.57314226 177.31592141 -3.90968156 181.74956032 -0.27734375 186.22265625 C2.28204136 189.34396467 4.88597667 192.42446635 7.5 195.5 C11.64053586 200.37357678 15.7159837 205.29467516 19.75390625 210.25390625 C22.9867711 214.20643493 26.26519072 218.12048982 29.5390625 222.0390625 C31.83635272 224.80310375 34.10892486 227.58535516 36.375 230.375 C40.31380764 235.20142627 44.34517155 239.94120212 48.41308594 244.65869141 C50.91767307 247.56429836 53.40837539 250.47865685 55.859375 253.4296875 C68.03547544 268.08163067 80.90356043 281.05389188 99 288 C100.03125 288.4125 101.0625 288.825 102.125 289.25 C106.06943226 290.27898233 109.9405482 290.63095893 114 291 C114 293.97 114 296.94 114 300 C44.74936098 301.03051546 44.74936098 301.03051546 21.59765625 279.66796875 C17.10938019 275.05820552 13.27378804 269.97091172 9.39990234 264.84375 C7.09332016 261.80585173 4.73403354 258.80973416 2.375 255.8125 C1.91399902 255.22549316 1.45299805 254.63848633 0.97802734 254.03369141 C-3.27461697 248.62824916 -7.621815 243.30420858 -12 238 C-13.11864648 236.64205631 -14.23712333 235.28397288 -15.35546875 233.92578125 C-17.18503742 231.70394989 -19.01468022 229.48218012 -20.84472656 227.26074219 C-28.80400666 217.59866635 -36.71538425 207.8982968 -44.60546875 198.1796875 C-46.83525105 195.43327175 -49.06703722 192.68850692 -51.30078125 189.9453125 C-58.58161601 181.00168515 -65.84152243 172.04203228 -73 163 C-73.73887451 162.06752441 -73.73887451 162.06752441 -74.49267578 161.11621094 C-75.91799246 159.31140546 -77.33545347 157.50075388 -78.75 155.6875 C-79.18078857 155.14198486 -79.61157715 154.59646973 -80.05541992 154.03442383 C-83 150.23128737 -83 150.23128737 -83 148 C-82.34 148 -81.68 148 -81 148 C-80.78472656 147.46503906 -80.56945312 146.93007813 -80.34765625 146.37890625 C-78.50749598 143.13062334 -76.00156177 140.61581982 -73.4375 137.9375 C-69.61699435 133.87960371 -65.92801739 129.78799993 -62.4375 125.4375 C-59.26522002 121.48505714 -55.95159818 117.70863841 -52.5 114 C-49.02580757 110.26672745 -45.6993129 106.47628889 -42.5 102.5 C-39.30068278 98.52370574 -35.97415055 94.73331702 -32.5 91 C-28.2104224 86.38998361 -24.19589103 81.62216764 -20.24609375 76.71484375 C-17.9116941 73.89326505 -15.48009402 71.19409288 -13 68.5 C-8.94755416 64.09163827 -5.11872791 59.55715508 -1.36328125 54.89453125 C0.34461971 52.80270544 2.06850576 50.74291389 3.83203125 48.69921875 C15.90676205 34.95968437 15.90676205 34.95968437 19.41796875 17.53125 C19.18613286 14.77117562 19.18613286 14.77117562 16.8125 12.4375 C11.72498192 9.91221863 5.56847918 9.62789973 0 9 C0 6.03 0 3.06 0 0 Z " fill="#3F4443" transform="translate(655,282)"/>
<path d="M0 0 C37.29 0 74.58 0 113 0 C113 18.48 113 36.96 113 56 C75.71 56 38.42 56 0 56 C0 53.03 0 50.06 0 47 C1.4025 46.896875 2.805 46.79375 4.25 46.6875 C7.97534094 46.25472884 10.45280753 45.95474327 13 43 C15.18892284 37.85006155 15.36635035 33.12617751 15.375 27.625 C15.39949219 26.81289063 15.42398437 26.00078125 15.44921875 25.1640625 C15.47662932 19.46266303 14.66004137 14.55160841 11 10 C8.25606268 8.6319522 8.25606268 8.6319522 5.25 8.5 C4.26515625 8.3865625 3.2803125 8.273125 2.265625 8.15625 C1.14414062 8.07890625 1.14414062 8.07890625 0 8 C0 5.36 0 2.72 0 0 Z " fill="#67121D" transform="translate(336,449)"/>
<path d="M0 0 C20.13 0 40.26 0 61 0 C61 11.22 61 22.44 61 34 C40.87 34 20.74 34 0 34 C0 22.78 0 11.56 0 0 Z " fill="#64121C" transform="translate(387,291)"/>
<path d="M0 0 C20.13 0 40.26 0 61 0 C61 14.19 61 28.38 61 43 C57.04 43 53.08 43 49 43 C49 37.06 49 31.12 49 25 C37.12 25 25.24 25 13 25 C13 31.27 13 37.54 13 44 C8.71 44 4.42 44 0 44 C0 29.48 0 14.96 0 0 Z " fill="#65101C" transform="translate(387,335)"/>
<path d="M0 0 C5.49541467 -0.04620152 10.99014074 -0.08593879 16.4855957 -0.10986328 C18.35052794 -0.1198491 20.21544481 -0.13344246 22.08032227 -0.15087891 C36.15590577 -0.2790787 46.90098943 0.17821753 60 6 C59.67 15.24 59.34 24.48 59 34 C39.53 34 20.06 34 0 34 C0 22.78 0 11.56 0 0 Z " fill="#AC4E5B" transform="translate(458,291)"/>
<path d="M0 0 C19.8 0 39.6 0 60 0 C60 9.57 60 19.14 60 29 C40.2 29 20.4 29 0 29 C0 19.43 0 9.86 0 0 Z " fill="#65101A" transform="translate(388,545)"/>
<path d="M0 0 C19.47 0 38.94 0 59 0 C59 7.59 59 15.18 59 23 C46.15170896 30.34188059 31.46456978 29.28018668 17 29.125 C15.33854717 29.11493256 13.67708831 29.10581347 12.015625 29.09765625 C8.01013823 29.07770861 4.00551951 29.03851461 0 29 C0 19.43 0 9.86 0 0 Z " fill="#AD4B59" transform="translate(458,545)"/>
<path d="M0 0 C20.13 0 40.26 0 61 0 C61 7.26 61 14.52 61 22 C40.87 22 20.74 22 0 22 C0 14.74 0 7.48 0 0 Z " fill="#68111C" transform="translate(387,513)"/>
<path d="M0 0 C19.47 0 38.94 0 59 0 C59 7.26 59 14.52 59 22 C39.53 22 20.06 22 0 22 C0 14.74 0 7.48 0 0 Z " fill="#AD4B59" transform="translate(458,513)"/>
<path d="M0 0 C3.63 0 7.26 0 11 0 C10.34 0.66 9.68 1.32 9 2 C8.030625 1.979375 7.06125 1.95875 6.0625 1.9375 C2.9985395 1.68924439 2.9985395 1.68924439 1.125 3.5 C0.75375 3.995 0.3825 4.49 0 5 C0 3.35 0 1.7 0 0 Z " fill="#5C0614" transform="translate(388,335)"/>
<path d="M0 0 C0.66 0.66 1.32 1.32 2 2 C-0.64 4.64 -3.28 7.28 -6 10 C-6.66 9.67 -7.32 9.34 -8 9 C-5.36 6.03 -2.72 3.06 0 0 Z " fill="#DFE0D7" transform="translate(696,320)"/>
<path d="M0 0 C0.99 0.33 1.98 0.66 3 1 C2.34 4.3 1.68 7.6 1 11 C0.67 11 0.34 11 0 11 C0 7.37 0 3.74 0 0 Z " fill="#E7E4D9" transform="translate(517,298)"/>
</svg>
